<?xml version="1.0" encoding="utf-8"?>
<!-- Generator: Adobe Illustrator 27.1.1, SVG Export Plug-In . SVG Version: 6.00 Build 0)  -->
<svg version="1.1" id="Layer_1" xmlns="http://www.w3.org/2000/svg" xmlns:xlink="http://www.w3.org/1999/xlink" x="0px" y="0px"
	 viewBox="0 0 36.7 34" style="enable-background:new 0 0 36.7 34;" xml:space="preserve">
<style type="text/css">
	.st0{clip-path:url(#SVGID_00000096046442671039229430000011072092920097922696_);}
	.st1{fill-rule:evenodd;clip-rule:evenodd;fill:#384BFF;}
	.st2{fill:#FFFFFF;}
	.st3{fill:#FFFDFD;}
	.st4{fill:#FCFCFC;}
</style>
<g>
	<defs>
		<rect id="SVGID_1_" width="165" height="34"/>
	</defs>
	<clipPath id="SVGID_00000156569470019454835910000000868074133974504629_">
		<use xlink:href="#SVGID_1_"  style="overflow:visible;"/>
	</clipPath>
	<g style="clip-path:url(#SVGID_00000156569470019454835910000000868074133974504629_);">
		<path class="st1" d="M1.4,20.1c1.8,1.8,4.7,1.8,6.5,0c1.8-1.8,1.8-4.8,0-6.6c-1.8-1.8-4.7-1.8-6.5,0C-0.3,15.3-0.3,18.3,1.4,20.1z
			 M19.9,25.7c-1.8-1.8-4.7-1.8-6.5,0c-1.8,1.8-1.8,4.8,0,6.6c1.8,1.8,4.7,1.8,6.5,0C21.7,30.4,21.7,27.5,19.9,25.7z M25.4,13.5
			c-1.8,1.8-1.8,4.8,0,6.6c1.8,1.8,4.7,1.8,6.5,0c1.8-1.8,1.8-4.8,0-6.6C30.1,11.7,27.2,11.7,25.4,13.5z M13.4,1.4
			c-1.8,1.8-1.8,4.8,0,6.6c1.8,1.8,4.7,1.8,6.5,0c1.8-1.8,1.8-4.7,0-6.6c0,0,0,0,0,0C18.1-0.5,15.2-0.5,13.4,1.4z M7.9,1.4
			c-0.6-0.6-1.3-1-2-1.2c0,0,0,0,0,0C5.5,0.1,5.1,0,4.7,0h0C2.2,0,0.1,2.1,0.1,4.6c0,0,0,0,0,0c0,2.1,1.4,3.9,3.4,4.5
			c0.4,0.1,0.8,0.2,1.2,0.2c0.8,0,1.6,0.1,2.3,0.2c2.7,0.6,4.3,2.2,4.9,5c0.1,0.6,0.2,1.3,0.2,2c0,0.1,0,0.2,0,0.3
			c0,0.8-0.1,1.6-0.2,2.3c-0.6,2.7-2.2,4.4-4.9,5c-0.7,0.1-1.5,0.2-2.3,0.2c-1.2,0-2.3,0.5-3.1,1.2c0,0-0.1,0.1-0.1,0.1
			c-1.7,1.7-1.8,4.5-0.2,6.3c0.1,0.1,0.1,0.2,0.2,0.2c0.7,0.8,1.7,1.2,2.9,1.3l0.6,0c2.4-0.1,4.4-2.1,4.4-4.7c0-0.1,0-0.2,0-0.3
			c0-0.7,0.1-1.4,0.2-2c0.6-2.7,2.2-4.4,4.9-5c0.6-0.1,1.3-0.2,2-0.2c0,0,0,0,0,0l0.1,0l0,0l0,0c0.1,0,0.2,0,0.2,0l-0.2,0l0.2,0h0
			l0.3,0l0.1,0c-0.1,0-0.1,0-0.2,0l-0.1,0c0,0-0.1,0-0.1,0c0.8,0,1.6,0.1,2.3,0.2c2.7,0.6,4.3,2.2,4.9,5C24,27.3,24,28.1,24,29
			c0,1.2,0.5,2.4,1.3,3.2c0,0,0.1,0,0.1,0.1c0.8,0.9,1.9,1.3,3,1.4c0,0,0,0,0,0l0.5,0c1.1-0.1,2.1-0.6,2.9-1.3
			c0.9-0.9,1.4-2.1,1.4-3.3c0-2.5-2-4.6-4.5-4.7c0,0-0.1,0-0.1,0c-0.8,0-1.6-0.1-2.3-0.2c-2.7-0.6-4.3-2.2-4.9-5
			c-0.1-0.7-0.2-1.4-0.2-2.2c0,0,0-0.1,0-0.1c0-0.8,0.1-1.6,0.2-2.3c0.6-2.7,2.2-4.4,4.9-5c0.7-0.1,1.5-0.2,2.3-0.2
			c1.2,0,2.3-0.5,3.1-1.3c0,0,0.1-0.1,0.1-0.1c1.8-1.8,1.8-4.8,0-6.6c0,0,0,0,0,0c0,0,0,0,0,0C31,0.5,29.9,0,28.6,0h0
			C26.1,0,24,2.1,24,4.7c0,0.1,0,0.1,0,0.2C24,5.6,24,6.3,23.8,7c-0.6,2.7-2.2,4.4-4.9,5c-0.6,0.1-1.3,0.2-2,0.2c0,0-0.1,0-0.1,0
			c0,0,0,0,0,0c0,0-0.1,0-0.1,0c0,0,0,0,0,0c0,0-0.1,0-0.1,0c0,0,0,0-0.1,0c0,0,0,0,0,0c-0.1,0-0.1,0-0.2,0c-0.7,0-1.4-0.1-2-0.2
			c-2.7-0.6-4.3-2.2-4.9-5C9.3,6.3,9.3,5.5,9.3,4.7C9.3,3.4,8.8,2.3,7.9,1.4C8,1.4,8,1.4,7.9,1.4z"/>
		<path class="st2" d="M55.4,31H42.1c-0.6,0-0.9-0.3-0.9-0.9V3.9c0-0.6,0.3-0.9,0.9-0.9h13.3c0.5,0,0.8,0.3,0.8,0.9v3
			c0,0.6-0.3,0.9-0.8,0.9h-8.5c-0.3,0-0.5,0.2-0.5,0.5v5.7c0,0.3,0.2,0.5,0.5,0.5h7c0.6,0,0.9,0.3,0.9,0.9v3c0,0.6-0.3,0.9-0.9,0.9
			h-7c-0.3,0-0.5,0.2-0.5,0.5v6.1c0,0.3,0.2,0.5,0.5,0.5h8.5c0.5,0,0.8,0.3,0.8,0.9v3C56.2,30.7,55.9,31,55.4,31z"/>
		<path class="st3" d="M64.2,31H60c-0.7,0-0.9-0.3-0.6-0.9l5.3-10.3l-5.3-9.9C59.1,9.3,59.3,9,59.9,9h4.3c0.7,0,1.1,0.3,1.3,0.9
			l2.7,6.6h0.2l2.3-6.6C70.8,9.3,71.3,9,71.9,9h4.2c0.7,0,0.9,0.3,0.5,0.9l-5.1,9.9l5.4,10.3c0.1,0.3,0.2,0.5,0,0.6
			c-0.1,0.2-0.3,0.3-0.5,0.3h-4.3c-0.6,0-1-0.3-1.3-0.9l-2.7-6.6h-0.2l-2.7,6.6C65.3,30.7,64.9,31,64.2,31z"/>
		<path class="st2" d="M80.7,14h-1.6c-0.3,0-0.6-0.1-0.7-0.2c-0.1-0.1-0.2-0.3-0.2-0.7v-2.9c0-0.6,0.3-0.9,0.9-0.9h1.6
			c0.3,0,0.4-0.2,0.4-0.5v-4C81.1,4.3,81.4,4,82,4h3.4c0.6,0,0.9,0.3,0.9,0.9v4c0,0.3,0.2,0.5,0.5,0.5H90c0.6,0,0.9,0.3,0.9,0.9v2.9
			c0,0.3-0.1,0.5-0.2,0.7C90.5,14,90.3,14,90,14h-3.2c-0.3,0-0.5,0.2-0.5,0.5v9.4c0,0.9,0.2,1.5,0.6,1.9c0.4,0.4,1,0.6,1.9,0.6h1.6
			c0.6,0,0.9,0.3,0.9,0.9v2.9c0,0.3-0.1,0.5-0.2,0.7c-0.1,0.1-0.3,0.2-0.7,0.2h-2.5c-2.1,0-3.8-0.6-5-1.8c-1.2-1.2-1.7-2.9-1.7-5.1
			v-9.6C81.1,14.2,81,14,80.7,14z"/>
		<path class="st4" d="M111.3,31h-9.2c-2.2,0-3.9-0.6-5.1-1.8c-1.2-1.2-1.8-2.9-1.8-5.2V16c0-2.3,0.6-4,1.8-5.2
			c1.2-1.2,2.9-1.8,5.1-1.8h3.3c2.2,0,3.9,0.6,5.1,1.8c1.2,1.2,1.8,2.9,1.8,5.2v5.5c0,0.6-0.3,0.9-0.9,0.9h-10.4
			c-0.3,0-0.5,0.2-0.5,0.5v0.9c0,0.9,0.2,1.5,0.5,1.9c0.4,0.4,1,0.6,1.9,0.6h8.4c0.6,0,0.9,0.3,0.9,0.9v2.8c0,0.3-0.1,0.5-0.2,0.7
			C111.8,30.9,111.6,31,111.3,31z M100.9,18.7h5.7c0.3,0,0.5-0.2,0.5-0.5v-2.1c0-0.9-0.2-1.6-0.5-1.9c-0.4-0.4-1-0.6-1.9-0.6h-1.7
			c-0.9,0-1.5,0.2-1.9,0.6c-0.4,0.4-0.5,1-0.5,1.9v2.1C100.4,18.6,100.6,18.7,100.9,18.7z"/>
		<path class="st2" d="M130.2,27.2v3c0,0.3-0.1,0.5-0.2,0.7c-0.1,0.1-0.4,0.2-0.7,0.2h-6.7c-2.4,0-4.2-0.6-5.5-1.8
			c-1.3-1.2-1.9-2.9-1.9-5.2V16c0-2.3,0.6-4,1.9-5.2c1.3-1.2,3.1-1.8,5.5-1.8h6.7c0.6,0,0.9,0.3,0.9,0.9v3c0,0.3-0.1,0.5-0.2,0.7
			c-0.1,0.1-0.4,0.2-0.7,0.2h-5.8c-0.9,0-1.6,0.2-2,0.6c-0.4,0.4-0.6,1-0.6,1.9v7.4c0,0.9,0.2,1.6,0.6,2c0.4,0.4,1.1,0.6,2,0.6h5.8
			C129.9,26.3,130.2,26.6,130.2,27.2z"/>
		<path class="st2" d="M137.8,31h-3.7c-0.6,0-0.9-0.3-0.9-0.9V1.9c0-0.6,0.3-0.9,0.9-0.9h3.7c0.6,0,0.9,0.3,0.9,0.9v9.6h0.2
			c0.6-1.5,2-2.3,4.2-2.3h1.4c4.5,0,6.8,2.3,6.8,7v13.9c0,0.6-0.3,0.9-0.9,0.9h-3.6c-0.6,0-0.9-0.3-0.9-0.9V16.4
			c0-0.9-0.2-1.6-0.6-1.9c-0.4-0.4-1-0.6-1.9-0.6h-1.6c-2,0-3,1.1-3,3.2v12.9C138.7,30.7,138.4,31,137.8,31z"/>
	</g>
</g>
</svg>
