<?xml version="1.0" encoding="UTF-8"?>
<svg id="Layer_1" data-name="Layer 1" xmlns="http://www.w3.org/2000/svg" xmlns:xlink="http://www.w3.org/1999/xlink" viewBox="0 0 165 34">
  <defs>
    <style>
      .cls-1 {
        fill: #fff;
      }

      .cls-2 {
        fill: #fffdfd;
      }

      .cls-3 {
        fill: #384bff;
        fill-rule: evenodd;
      }

      .cls-4 {
        clip-path: url(#clippath);
      }

      .cls-5 {
        fill: none;
      }

      .cls-6 {
        fill: #fcfcfc;
      }
    </style>
    <clipPath id="clippath">
      <rect class="cls-5" y="0" width="165" height="34"/>
    </clipPath>
  </defs>
  <g class="cls-4">
    <g>
      <path class="cls-3" d="m1.44,20.1c1.79,1.82,4.69,1.82,6.48,0,1.79-1.82,1.79-4.76,0-6.58-1.79-1.82-4.69-1.82-6.48,0-1.79,1.82-1.79,4.76,0,6.58Zm18.45,5.58c-1.79-1.82-4.69-1.82-6.48,0-1.79,1.82-1.79,4.76,0,6.58,1.79,1.82,4.69,1.82,6.48,0,1.79-1.82,1.79-4.76,0-6.58Zm5.49-12.16c-1.79,1.82-1.79,4.76,0,6.58,1.79,1.82,4.69,1.82,6.48,0,1.79-1.82,1.79-4.76,0-6.58-1.79-1.82-4.69-1.82-6.48,0ZM13.42,1.36c-1.79,1.82-1.79,4.76,0,6.58,1.79,1.82,4.69,1.82,6.48,0,1.78-1.81,1.79-4.75.01-6.57,0,0,0,0-.01-.01-1.79-1.82-4.69-1.82-6.48,0Zm-5.49,0c-.58-.59-1.27-.98-2-1.19-.01,0-.02,0-.03,0C5.51.06,5.12,0,4.71,0h-.01C2.17,0,.13,2.08.12,4.65H.12c0,2.15,1.42,3.95,3.36,4.5.39.11.8.17,1.22.17.83,0,1.59.07,2.28.22,2.68.57,4.32,2.23,4.89,4.96.13.62.2,1.28.21,2.01,0,.1,0,.2,0,.31,0,.85-.07,1.62-.22,2.33-.56,2.72-2.2,4.38-4.87,4.95-.7.15-1.46.22-2.3.22-1.19,0-2.28.47-3.1,1.23-.04.05-.09.1-.13.14-1.71,1.74-1.79,4.51-.22,6.34.07.08.14.16.22.24.75.75,1.75,1.25,2.86,1.34h.55c2.44-.09,4.4-2.13,4.4-4.64,0-.09,0-.18,0-.27.01-.74.09-1.42.21-2.04.56-2.73,2.2-4.4,4.89-4.97.6-.13,1.26-.2,1.97-.22-.01,0-.03,0-.04,0h.07s.02,0,.02,0h.02c.08,0,.15,0,.23,0h-.23s.25,0,.25,0h.3s.06,0,.06,0c-.06,0-.11,0-.17.01h-.06s-.08,0-.12,0c.83,0,1.59.07,2.28.22,2.68.57,4.32,2.23,4.88,4.96.14.7.22,1.48.22,2.32,0,1.25.48,2.38,1.27,3.22.03.02.05.05.08.08.85.86,1.94,1.31,3.05,1.36,0,0,0,0,0,0h.55c1.11-.1,2.11-.59,2.86-1.35.86-.88,1.35-2.06,1.35-3.3,0-2.53-2.01-4.6-4.48-4.65-.03,0-.06,0-.09,0-.83,0-1.59-.07-2.28-.22-2.68-.57-4.32-2.23-4.88-4.96-.14-.67-.21-1.4-.22-2.2,0-.04,0-.08,0-.12,0-.85.07-1.62.22-2.33.56-2.72,2.2-4.39,4.88-4.96.69-.15,1.46-.22,2.29-.22,1.21,0,2.32-.48,3.14-1.26.03-.04.07-.07.1-.11,1.79-1.82,1.79-4.76,0-6.58,0,0,0,0-.01-.01,0,0-.02-.02-.03-.03C31.01.51,29.88,0,28.63,0h-.01c-2.53,0-4.57,2.09-4.57,4.65,0,.05,0,.11,0,.16,0,.78-.08,1.5-.22,2.16-.56,2.73-2.2,4.39-4.89,4.96-.61.13-1.27.2-1.98.22-.05,0-.1,0-.15,0,0,0,0,0-.01,0-.04,0-.09,0-.13,0h-.01s-.06,0-.09,0c-.02,0-.04,0-.07,0h0c-.06,0-.12,0-.18,0-.71-.02-1.36-.09-1.96-.22-2.68-.57-4.32-2.24-4.88-4.96-.14-.7-.22-1.48-.22-2.32,0-1.25-.48-2.38-1.27-3.21-.03-.03-.05-.05-.08-.08Z"/>
      <path class="cls-1" d="m55.4,31h-13.33c-.57,0-.86-.3-.86-.91V3.91c0-.61.29-.91.86-.91h13.33c.54,0,.82.3.82.91v2.96c0,.61-.27.91-.82.91h-8.52c-.33,0-.49.16-.49.48v5.66c0,.32.16.48.49.48h6.97c.57,0,.86.3.86.91v2.96c0,.61-.29.91-.86.91h-6.97c-.33,0-.49.16-.49.48v6.05c0,.32.16.48.49.48h8.52c.54,0,.82.3.82.91v2.96c0,.61-.27.91-.82.91Z"/>
      <path class="cls-2" d="m64.22,31h-4.26c-.73,0-.93-.3-.59-.91l5.32-10.31-5.32-9.88c-.28-.6-.11-.91.51-.91h4.3c.68,0,1.11.3,1.31.91l2.66,6.56h.17l2.32-6.56c.2-.6.63-.91,1.31-.91h4.22c.73,0,.91.3.55.91l-5.06,9.88,5.44,10.31c.14.26.15.47.04.65-.08.17-.27.26-.55.26h-4.35c-.59,0-1.01-.3-1.27-.91l-2.66-6.6h-.17l-2.66,6.6c-.2.6-.62.91-1.27.91Z"/>
      <path class="cls-1" d="m80.69,14.05h-1.62c-.32,0-.56-.06-.69-.17-.11-.11-.16-.34-.16-.68v-2.92c0-.59.28-.89.85-.89h1.62c.3,0,.45-.16.45-.47v-4.03c0-.59.3-.89.89-.89h3.41c.57,0,.85.3.85.89v4.03c0,.31.16.47.49.47h3.17c.57,0,.85.3.85.89v2.92c0,.31-.07.54-.2.68-.11.11-.32.17-.65.17h-3.17c-.33,0-.49.16-.49.47v9.37c0,.88.19,1.51.57,1.91.38.37,1,.55,1.87.55h1.62c.57,0,.85.3.85.89v2.92c0,.31-.07.54-.2.68-.11.11-.32.17-.65.17h-2.48c-2.14,0-3.81-.59-5-1.78-1.16-1.19-1.75-2.88-1.75-5.09v-9.62c0-.31-.15-.47-.45-.47Z"/>
      <path class="cls-6" d="m111.26,31h-9.18c-2.19,0-3.88-.6-5.07-1.81-1.19-1.21-1.79-2.95-1.79-5.22v-7.94c0-2.27.6-4.01,1.79-5.22,1.19-1.21,2.88-1.81,5.07-1.81h3.28c2.19,0,3.88.6,5.07,1.81,1.19,1.21,1.79,2.95,1.79,5.22v5.48c0,.6-.29.91-.87.91h-10.43c-.33,0-.5.16-.5.47v.95c0,.89.18,1.54.54,1.94.39.37,1.03.56,1.91.56h8.4c.58,0,.87.32.87.95v2.85c0,.32-.07.55-.21.69-.11.11-.33.17-.67.17Zm-10.35-12.25h5.65c.3,0,.46-.16.46-.47v-2.07c0-.92-.18-1.57-.54-1.94-.36-.37-.98-.56-1.87-.56h-1.75c-.89,0-1.51.19-1.87.56-.36.37-.54,1.02-.54,1.94v2.07c0,.32.15.47.46.47Z"/>
      <path class="cls-1" d="m130.21,27.16v2.98c0,.32-.07.55-.22.69-.12.11-.36.17-.72.17h-6.67c-2.36,0-4.18-.6-5.46-1.81-1.28-1.21-1.93-2.95-1.93-5.22v-7.94c0-2.27.64-4.01,1.93-5.22,1.28-1.21,3.1-1.81,5.46-1.81h6.67c.63,0,.94.3.94.91v2.98c0,.32-.07.55-.22.69-.12.12-.36.17-.72.17h-5.78c-.93,0-1.6.2-2.01.6-.39.37-.58,1.02-.58,1.94v7.42c0,.92.19,1.58.58,1.98.42.37,1.09.56,2.01.56h5.78c.63,0,.94.3.94.91Z"/>
      <path class="cls-1" d="m137.78,31h-3.66c-.6,0-.9-.3-.9-.9V1.9c0-.6.3-.9.9-.9h3.66c.6,0,.9.3.9.9v9.64h.17c.63-1.54,2.04-2.3,4.22-2.3h1.38c4.51,0,6.76,2.32,6.76,6.96v13.91c0,.6-.32.9-.95.9h-3.62c-.6,0-.9-.3-.9-.9v-13.66c0-.91-.2-1.55-.6-1.92-.37-.4-1.02-.6-1.94-.6h-1.55c-1.98,0-2.97,1.08-2.97,3.24v12.93c0,.6-.3.9-.9.9Z"/>
    </g>
  </g>
</svg>